<?xml version="1.0" standalone="no"?><!DOCTYPE svg PUBLIC "-//W3C//DTD SVG 1.1//EN" "http://www.w3.org/Graphics/SVG/1.1/DTD/svg11.dtd"><svg t="1613626805594" class="icon" viewBox="0 0 1024 1024" version="1.1" xmlns="http://www.w3.org/2000/svg" p-id="3320" xmlns:xlink="http://www.w3.org/1999/xlink" width="200" height="200"><defs><style type="text/css"></style></defs><path d="M512 453.818182m-69.818182 0a69.818182 69.818182 0 1 0 139.636364 0 69.818182 69.818182 0 1 0-139.636364 0Z" fill="#1296db" p-id="3321"></path><path d="M372.363636 733.090909a23.272727 23.272727 0 0 0-23.272727 23.272727v139.636364a23.272727 23.272727 0 0 0 46.545455 0v-139.636364a23.272727 23.272727 0 0 0-23.272728-23.272727zM512 733.090909a23.272727 23.272727 0 0 0-23.272727 23.272727v232.727273a23.272727 23.272727 0 0 0 46.545454 0v-232.727273a23.272727 23.272727 0 0 0-23.272727-23.272727zM651.636364 733.090909a23.272727 23.272727 0 0 0-23.272728 23.272727v93.090909a23.272727 23.272727 0 0 0 46.545455 0v-93.090909a23.272727 23.272727 0 0 0-23.272727-23.272727z" fill="#1296db" p-id="3322"></path><path d="M512 360.727273a93.090909 93.090909 0 1 0 93.090909 93.090909 93.090909 93.090909 0 0 0-93.090909-93.090909z m0 139.636363a46.545455 46.545455 0 1 1 46.545455-46.545454 46.545455 46.545455 0 0 1-46.545455 46.545454z" fill="#1296db" p-id="3323"></path><path d="M738.909091 246.458182C696.552727 105.658182 611.84 11.636364 512 11.636364s-184.552727 93.090909-226.909091 234.821818A395.636364 395.636364 0 0 0 116.363636 570.181818a23.272727 23.272727 0 0 0 23.272728 23.272727h129.629091a628.363636 628.363636 0 0 0 27.461818 101.236364 23.272727 23.272727 0 0 0 21.876363 15.127273h386.792728a23.272727 23.272727 0 0 0 21.876363-15.127273 628.363636 628.363636 0 0 0 27.461818-101.236364H884.363636a23.272727 23.272727 0 0 0 23.272728-23.272727 395.636364 395.636364 0 0 0-168.727273-323.723636zM263.214545 349.090909v6.050909c0 6.981818-1.629091 14.196364-2.327272 21.410909s-1.396364 14.429091-1.861818 21.876364 0 10.24 0 15.36v40.261818c0 18.850909 0 37.469091 2.327272 56.087273 0 6.516364 1.163636 13.032727 1.861818 19.781818s0 11.636364 1.629091 17.221818H162.909091a349.090909 349.090909 0 0 1 103.563636-225.512727c-0.698182 8.610909-1.861818 17.92-3.258182 27.461818zM512 58.181818c67.956364 0 129.163636 64.930909 167.796364 162.909091H344.203636c38.632727-97.978182 99.84-162.909091 167.796364-162.909091z m200.610909 508.043637a603.229091 603.229091 0 0 1-23.272727 97.047272H334.894545a603.229091 603.229091 0 0 1-23.272727-97.047272A712.610909 712.610909 0 0 1 302.545455 453.818182c0-14.894545 0-29.323636 1.396363-43.752727 0-6.516364 0-12.8 1.629091-19.083637s1.396364-15.127273 2.327273-23.272727 2.094545-15.592727 3.258182-23.272727 1.861818-11.170909 2.792727-16.756364 3.025455-16.989091 4.887273-25.134545c0-3.258182 1.629091-6.516364 2.327272-9.774546 2.094545-8.610909 4.189091-17.454545 6.749091-25.832727H695.854545c2.327273 8.378182 4.654545 16.989091 6.749091 25.832727 0 3.258182 1.629091 6.516364 2.327273 9.774546 1.861818 8.145455 3.490909 16.756364 4.887273 25.134545s2.094545 11.170909 2.792727 16.756364 2.327273 15.36 3.258182 23.272727 1.629091 15.127273 2.327273 23.272727 1.163636 12.567273 1.629091 19.083637c0 14.429091 1.396364 29.090909 1.396363 43.752727a712.610909 712.610909 0 0 1-8.610909 112.407273z m49.803636-19.316364c0-5.585455 0-11.403636 1.629091-17.221818s1.396364-13.032727 1.861819-19.781818c1.396364-18.618182 2.327273-37.469091 2.327272-56.087273v-40.261818-15.36c0-5.12 0-14.661818-1.861818-21.876364s-1.396364-14.429091-2.327273-21.410909v-6.050909c-1.163636-9.309091-2.327273-18.385455-3.956363-27.461818A349.090909 349.090909 0 0 1 861.090909 546.909091z" fill="#1296db" p-id="3324"></path></svg>